<svg id="Capa_1" enable-background="new 0 0 511.467 511.467" height="512" viewBox="0 0 511.467 511.467" width="512" xmlns="http://www.w3.org/2000/svg"><path d="m475.047 192.802-158.351-115.68c-1.039-9.482-3.617-18.661-7.697-27.327-9.793-20.84-27.241-36.663-49.131-44.555-21.889-7.89-45.423-6.842-66.266 2.955-3.494 1.642-6.819 3.511-9.991 5.556-9.713-2.072-19.68-3.075-29.647-2.993-33.624.308-65.214 12.644-88.947 34.736-23.919 22.264-37.088 51.831-37.083 83.254 0 47.521 30.512 90.194 77.73 108.713 2.551 1 4.199 3.146 4.199 5.467v30.4c0 6.175 2.679 12.192 7.356 16.514l18.368 16.938c1.624 1.499 2.52 3.444 2.521 5.477.001 2.038-.896 3.988-2.518 5.487l-7.799 7.188c-4.677 4.308-7.358 10.327-7.358 16.517v19.609c0 6.183 2.682 12.199 7.354 16.503l13.965 12.884c1.628 1.499 2.524 3.445 2.524 5.479s-.896 3.979-2.529 5.483l-8.684 8.013c-4.671 4.316-7.35 10.333-7.35 16.509v40.73c0 6.184 2.683 12.2 7.354 16.503l28.53 26.319c1.436 1.325 3.26 1.987 5.085 1.987s3.65-.663 5.086-1.988l26.42-24.38c1.539-1.42 2.414-3.418 2.414-5.512v-13.34c0-4.143-3.357-7.5-7.5-7.5s-7.5 3.357-7.5 7.5v10.056l-18.921 17.459-23.448-21.631c-1.626-1.497-2.521-3.44-2.521-5.474v-40.73c0-2.034.898-3.984 2.525-5.488l8.675-8.005c4.747-4.372 7.362-10.236 7.362-16.512s-2.615-12.14-7.357-16.508l-13.965-12.884c-1.625-1.497-2.521-3.441-2.521-5.474v-19.609c0-2.039.896-3.986 2.522-5.485l7.808-7.197c4.739-4.379 7.347-10.244 7.345-16.516-.003-6.267-2.612-12.125-7.351-16.496l-18.364-16.935c-1.632-1.508-2.53-3.458-2.53-5.491v-30.4c0-8.534-5.386-16.161-13.722-19.432-41.435-16.25-68.208-53.44-68.208-94.749-.006-56.228 49.863-102.429 111.172-102.99 4.729-.045 9.438.194 14.107.696-13.227 13.785-21.578 31.627-23.788 50.482-22.212 4.951-38.873 24.803-38.873 48.486 0 27.396 22.289 49.686 49.686 49.686s49.685-22.289 49.685-49.686c0-25.899-19.921-47.221-45.244-49.476 2.794-17.982 12.347-34.638 27.035-46.028 33.762 9.122 61.146 32.36 73.659 62.71 4.521 10.961 6.928 22.493 7.154 34.272.797 42.146-25.995 80.07-68.259 96.616-8.299 3.253-13.662 10.881-13.662 19.433v188.3c0 4.143 3.357 7.5 7.5 7.5s7.5-3.357 7.5-7.5v-80.508l30.064 117.359c2.364 9.229 10.696 15.532 20.003 15.532.896 0 1.802-.059 2.712-.179l185.648-24.449c10.074-1.324 17.8-9.982 17.971-20.143l2.461-149.49c.068-4.142-3.234-7.554-7.376-7.622-.042-.001-.083-.001-.126-.001-4.084 0-7.429 3.277-7.496 7.377l-2.461 149.487c-.047 2.784-2.165 5.157-4.93 5.521l-185.651 24.449c-2.837.382-5.514-1.434-6.224-4.205l-44.596-174.083v-47.345c0-2.337 1.624-4.482 4.134-5.467 23.064-9.029 42.611-24.039 56.528-43.407 14.362-19.988 21.713-43.314 21.257-67.461-.234-12.184-2.485-24.132-6.685-35.581l9.165-11.714c1.889-2.415 5.319-2.888 7.798-1.083l173.408 126.685c1.923 1.4 2.326 3.208 2.326 4.478 0 2.463-1.567 5.305-4.988 5.723-10.205 1.218-18.029 9.89-18.2 20.173l-.311 18.83c-.068 4.142 3.233 7.555 7.375 7.623.043.001.084.001.126.001 4.085 0 7.43-3.277 7.497-7.376l.311-18.83c.047-2.817 2.188-5.193 5-5.529 10.54-1.287 18.19-9.957 18.19-20.614 0-6.62-3.095-12.672-8.486-16.597zm-285.128-67.382c0 19.126-15.56 34.686-34.685 34.686-19.126 0-34.686-15.56-34.686-34.686 0-15.2 9.833-28.139 23.47-32.813.538 8.278 2.269 16.586 5.319 24.677 1.133 3.005 3.986 4.856 7.019 4.856.879 0 1.773-.155 2.645-.484 3.876-1.461 5.834-5.787 4.372-9.663-2.602-6.903-4.037-13.996-4.43-21.057 17.387 1.858 30.976 16.612 30.976 34.484zm83.268-55.343-4.353 5.564c-13.729-25.086-36.686-44.853-64.546-55.705 16.117-6.332 33.868-6.578 50.494-.584 18.12 6.532 32.553 19.609 40.645 36.827 1.25 2.657 2.314 5.376 3.223 8.139-8.662-4.332-19.299-2.126-25.463 5.759z"/></svg>